# Blender v2.92.0 OBJ File: 'untitled.blend'
# www.blender.org
mtllib woodboat2.mtl
o Cylinder
v 0.003730 0.112019 3.648657
v 0.003730 0.112020 2.649536
v -0.001784 0.111477 2.649536
v -0.001784 0.111476 3.648657
v -0.007086 0.109868 2.649536
v -0.007086 0.109867 3.648657
v -0.011973 0.107256 2.649536
v -0.011973 0.107255 3.648657
v -0.016256 0.103741 2.649536
v -0.016256 0.103740 3.648657
v -0.019771 0.099458 2.649536
v -0.019771 0.099457 3.648657
v -0.022383 0.094572 2.649536
v -0.022383 0.094571 3.648657
v -0.023991 0.089269 2.649536
v -0.023991 0.089268 3.648657
v -0.024534 0.083755 2.649536
v -0.024534 0.083754 3.648657
v -0.023991 0.078241 2.649536
v -0.023991 0.078240 3.648657
v -0.022383 0.072939 2.649536
v -0.022383 0.072938 3.648657
v -0.019771 0.068052 2.649536
v -0.019771 0.068051 3.648657
v -0.016256 0.063769 2.649536
v -0.016256 0.063768 3.648657
v -0.011973 0.060254 2.649536
v -0.011973 0.060253 3.648657
v -0.007086 0.057642 2.649536
v -0.007086 0.057641 3.648657
v -0.001784 0.056034 2.649536
v -0.001784 0.056033 3.648657
v 0.003730 0.055491 2.649536
v 0.003730 0.055490 3.648657
v 0.009244 0.056034 2.649536
v 0.009244 0.056033 3.648657
v 0.014547 0.057642 2.649536
v 0.014547 0.057641 3.648657
v 0.019433 0.060254 2.649536
v 0.019433 0.060253 3.648657
v 0.023716 0.063769 2.649536
v 0.023716 0.063768 3.648657
v 0.027231 0.068052 2.649536
v 0.027231 0.068051 3.648657
v 0.029843 0.072939 2.649536
v 0.029843 0.072938 3.648657
v 0.031452 0.078241 2.649536
v 0.031452 0.078240 3.648657
v 0.031995 0.083755 2.649536
v 0.031995 0.083754 3.648657
v 0.031452 0.089269 2.649536
v 0.031452 0.089269 3.648657
v 0.029843 0.094572 2.649536
v 0.029843 0.094571 3.648657
v 0.027231 0.099458 2.649536
v 0.027231 0.099457 3.648657
v 0.023716 0.103741 2.649536
v 0.023716 0.103740 3.648657
v 0.019433 0.107256 2.649536
v 0.019433 0.107256 3.648657
v 0.014547 0.109868 2.649536
v 0.014546 0.109867 3.648657
v 0.009244 0.111477 2.649536
v 0.009244 0.111476 3.648657
v -0.016702 0.077708 3.627900
v -0.016702 -0.756862 3.847863
v -0.016702 -0.756861 3.607262
v -0.016703 0.077708 3.387299
v 0.018125 0.077708 3.627900
v 0.018125 0.077708 3.387299
v 0.018125 -0.756861 3.607262
v 0.018125 -0.756862 3.847863
vt 1.000000 0.500000
vt 1.000000 1.000000
vt 0.968750 1.000000
vt 0.968750 0.500000
vt 0.937500 1.000000
vt 0.937500 0.500000
vt 0.906250 1.000000
vt 0.906250 0.500000
vt 0.875000 1.000000
vt 0.875000 0.500000
vt 0.843750 1.000000
vt 0.843750 0.500000
vt 0.812500 1.000000
vt 0.812500 0.500000
vt 0.781250 1.000000
vt 0.781250 0.500000
vt 0.750000 1.000000
vt 0.750000 0.500000
vt 0.718750 1.000000
vt 0.718750 0.500000
vt 0.687500 1.000000
vt 0.687500 0.500000
vt 0.656250 1.000000
vt 0.656250 0.500000
vt 0.625000 1.000000
vt 0.625000 0.500000
vt 0.593750 1.000000
vt 0.593750 0.500000
vt 0.562500 1.000000
vt 0.562500 0.500000
vt 0.531250 1.000000
vt 0.531250 0.500000
vt 0.500000 1.000000
vt 0.500000 0.500000
vt 0.468750 1.000000
vt 0.468750 0.500000
vt 0.437500 1.000000
vt 0.437500 0.500000
vt 0.406250 1.000000
vt 0.406250 0.500000
vt 0.375000 1.000000
vt 0.375000 0.500000
vt 0.343750 1.000000
vt 0.343750 0.500000
vt 0.312500 1.000000
vt 0.312500 0.500000
vt 0.281250 1.000000
vt 0.281250 0.500000
vt 0.250000 1.000000
vt 0.250000 0.500000
vt 0.218750 1.000000
vt 0.218750 0.500000
vt 0.187500 1.000000
vt 0.187500 0.500000
vt 0.156250 1.000000
vt 0.156250 0.500000
vt 0.125000 1.000000
vt 0.125000 0.500000
vt 0.093750 1.000000
vt 0.093750 0.500000
vt 0.062500 1.000000
vt 0.062500 0.500000
vt 0.296822 0.485388
vt 0.250000 0.490000
vt 0.203179 0.485389
vt 0.158156 0.471731
vt 0.116663 0.449553
vt 0.080295 0.419706
vt 0.050447 0.383337
vt 0.028269 0.341844
vt 0.014612 0.296822
vt 0.010000 0.250000
vt 0.014611 0.203179
vt 0.028269 0.158156
vt 0.050447 0.116663
vt 0.080294 0.080294
vt 0.116663 0.050447
vt 0.158156 0.028269
vt 0.203178 0.014612
vt 0.250000 0.010000
vt 0.296822 0.014612
vt 0.341844 0.028269
vt 0.383337 0.050447
vt 0.419706 0.080294
vt 0.449553 0.116663
vt 0.471731 0.158156
vt 0.485388 0.203178
vt 0.490000 0.250000
vt 0.485388 0.296822
vt 0.471731 0.341844
vt 0.449553 0.383337
vt 0.419706 0.419706
vt 0.383337 0.449553
vt 0.341844 0.471731
vt 0.031250 1.000000
vt 0.031250 0.500000
vt 0.000000 1.000000
vt 0.000000 0.500000
vt 0.750000 0.490000
vt 0.796822 0.485388
vt 0.841844 0.471731
vt 0.883337 0.449553
vt 0.919706 0.419706
vt 0.949553 0.383337
vt 0.971731 0.341844
vt 0.985388 0.296822
vt 0.990000 0.250000
vt 0.985388 0.203178
vt 0.971731 0.158156
vt 0.949553 0.116663
vt 0.919706 0.080294
vt 0.883337 0.050447
vt 0.841844 0.028269
vt 0.796822 0.014612
vt 0.750000 0.010000
vt 0.703178 0.014612
vt 0.658156 0.028269
vt 0.616663 0.050447
vt 0.580294 0.080294
vt 0.550447 0.116663
vt 0.528269 0.158156
vt 0.514611 0.203179
vt 0.510000 0.250000
vt 0.514612 0.296822
vt 0.528269 0.341844
vt 0.550447 0.383337
vt 0.580295 0.419706
vt 0.616663 0.449553
vt 0.658156 0.471731
vt 0.703179 0.485389
vt 0.000000 0.000000
vt 0.000000 1.000000
vt 1.000000 1.000000
vt 1.000000 0.000000
vt 0.000000 0.000000
vt 1.000000 0.000000
vt 1.000000 1.000000
vt 0.000000 1.000000
vn -0.0980 0.9952 0.0000
vn -0.2904 0.9569 0.0000
vn -0.4714 0.8819 0.0000
vn -0.6344 0.7730 0.0000
vn -0.7730 0.6344 0.0000
vn -0.8819 0.4714 0.0000
vn -0.9570 0.2902 0.0000
vn -0.9952 0.0980 0.0000
vn -0.9952 -0.0980 -0.0000
vn -0.9570 -0.2902 -0.0000
vn -0.8819 -0.4714 -0.0000
vn -0.7730 -0.6344 -0.0000
vn -0.6344 -0.7730 -0.0000
vn -0.4714 -0.8819 -0.0000
vn -0.2902 -0.9570 -0.0000
vn -0.0980 -0.9952 -0.0000
vn 0.0980 -0.9952 -0.0000
vn 0.2905 -0.9569 -0.0000
vn 0.4714 -0.8819 -0.0000
vn 0.6344 -0.7730 -0.0000
vn 0.7730 -0.6344 -0.0000
vn 0.8819 -0.4714 -0.0000
vn 0.9569 -0.2904 -0.0000
vn 0.9952 -0.0980 -0.0000
vn 0.9952 0.0980 -0.0000
vn 0.9569 0.2904 -0.0000
vn 0.8819 0.4714 0.0000
vn 0.7730 0.6344 0.0000
vn 0.6345 0.7730 -0.0000
vn 0.4713 0.8820 -0.0000
vn 0.0000 0.0000 -1.0000
vn 0.2904 0.9569 0.0000
vn 0.0980 0.9952 0.0000
vn -0.0000 0.0000 1.0000
vn 1.0000 0.0000 -0.0000
vn -1.0000 0.0000 0.0000
vn 0.0000 0.2549 0.9670
vn 0.0000 -0.2549 -0.9670
vn 0.0000 1.0000 0.0000
vn 0.0000 -1.0000 -0.0000
usemtl Material.001
s off
f 1/1/1 2/2/1 3/3/1 4/4/1
f 4/4/2 3/3/2 5/5/2 6/6/2
f 6/6/3 5/5/3 7/7/3 8/8/3
f 8/8/4 7/7/4 9/9/4 10/10/4
f 10/10/5 9/9/5 11/11/5 12/12/5
f 12/12/6 11/11/6 13/13/6 14/14/6
f 14/14/7 13/13/7 15/15/7 16/16/7
f 16/16/8 15/15/8 17/17/8 18/18/8
f 18/18/9 17/17/9 19/19/9 20/20/9
f 20/20/10 19/19/10 21/21/10 22/22/10
f 22/22/11 21/21/11 23/23/11 24/24/11
f 24/24/12 23/23/12 25/25/12 26/26/12
f 26/26/13 25/25/13 27/27/13 28/28/13
f 28/28/14 27/27/14 29/29/14 30/30/14
f 30/30/15 29/29/15 31/31/15 32/32/15
f 32/32/16 31/31/16 33/33/16 34/34/16
f 34/34/17 33/33/17 35/35/17 36/36/17
f 36/36/18 35/35/18 37/37/18 38/38/18
f 38/38/19 37/37/19 39/39/19 40/40/19
f 40/40/20 39/39/20 41/41/20 42/42/20
f 42/42/21 41/41/21 43/43/21 44/44/21
f 44/44/22 43/43/22 45/45/22 46/46/22
f 46/46/23 45/45/23 47/47/23 48/48/23
f 48/48/24 47/47/24 49/49/24 50/50/24
f 50/50/25 49/49/25 51/51/25 52/52/25
f 52/52/26 51/51/26 53/53/26 54/54/26
f 54/54/27 53/53/27 55/55/27 56/56/27
f 56/56/28 55/55/28 57/57/28 58/58/28
f 58/58/29 57/57/29 59/59/29 60/60/29
f 60/60/30 59/59/30 61/61/30 62/62/30
f 3/63/31 2/64/31 63/65/31 61/66/31 59/67/31 57/68/31 55/69/31 53/70/31 51/71/31 49/72/31 47/73/31 45/74/31 43/75/31 41/76/31 39/77/31 37/78/31 35/79/31 33/80/31 31/81/31 29/82/31 27/83/31 25/84/31 23/85/31 21/86/31 19/87/31 17/88/31 15/89/31 13/90/31 11/91/31 9/92/31 7/93/31 5/94/31
f 62/62/32 61/61/32 63/95/32 64/96/32
f 64/96/33 63/95/33 2/97/33 1/98/33
f 1/99/34 4/100/34 6/101/34 8/102/34 10/103/34 12/104/34 14/105/34 16/106/34 18/107/34 20/108/34 22/109/34 24/110/34 26/111/34 28/112/34 30/113/34 32/114/34 34/115/34 36/116/34 38/117/34 40/118/34 42/119/34 44/120/34 46/121/34 48/122/34 50/123/34 52/124/34 54/125/34 56/126/34 58/127/34 60/128/34 62/129/34 64/130/34
usemtl None
f 65/131/35 66/132/35 67/133/35 68/134/35
f 69/135/36 70/136/36 71/137/36 72/138/36
f 68/134/37 67/133/37 71/137/37 70/136/37
f 66/132/38 65/131/38 69/135/38 72/138/38
f 67/133/39 66/132/39 72/138/39 71/137/39
f 65/131/40 68/134/40 70/136/40 69/135/40
o Body
v 1.278943 -0.000000 0.391749
v -1.278943 -0.000000 0.391750
v -1.278943 0.058860 0.391750
v 1.278943 0.058860 0.391749
v 0.786713 -0.479520 3.421318
v 1.006161 -0.479518 0.999304
v 1.006161 -0.479518 0.999304
v 0.786713 -0.479520 3.421318
v -1.006161 -0.479518 0.999304
v -0.786713 -0.479520 3.421318
v 0.000000 -0.691740 3.421318
v 0.000000 -0.691738 0.999304
v -1.000000 -0.000002 3.170872
v 1.000000 -0.000002 3.170872
v -0.786713 -0.479520 3.421318
v 0.000000 0.000000 -2.857722
v 0.000000 -0.479518 -2.108168
v -1.006161 -0.479518 0.999304
v 0.000000 -0.479518 -2.108168
v 0.967392 -0.000001 3.008939
v -0.967392 -0.000001 3.008939
v -0.967392 -0.070843 3.008939
v 0.967392 -0.070843 3.008939
v 0.000000 -0.691738 -1.188138
v -1.213829 -0.000000 0.553683
v 1.213829 -0.000000 0.553683
v 1.213829 -0.070842 0.553683
v 0.967392 -0.070843 3.008939
v 1.213829 -0.070842 0.553683
v -1.213829 -0.070842 0.553683
v 0.000000 0.058860 -2.857722
v -0.957386 0.162925 0.026035
v 0.000000 0.162925 -2.406440
v 0.957386 0.162925 0.026035
v 0.967392 -0.070843 3.008939
v 1.213829 -0.070842 0.553683
v -1.213829 -0.070842 0.553683
v -0.967392 -0.070843 3.008939
v -0.967392 -0.070843 3.008939
v -1.213829 -0.070842 0.553683
v -0.845384 -0.370179 0.726931
v -0.673751 -0.370180 3.004700
v 0.845384 -0.370179 0.726931
v 0.673751 -0.370180 3.004700
vt 0.688264 0.638865
vt 0.688264 0.638866
vt 0.735397 0.638866
vt 0.735397 0.638865
vt 0.304278 4.951198
vt 0.304278 1.503668
vt 0.304278 1.503668
vt 0.304278 4.951198
vt 0.304278 1.503668
vt 0.304278 4.951198
vt 0.134338 4.951198
vt 0.134338 1.503668
vt 0.688263 4.594708
vt 0.688263 4.594708
vt 0.304278 4.951198
vt 0.688264 -3.986478
vt 0.304279 -2.919552
vt 0.304278 1.503668
vt 0.304279 -2.919552
vt 0.688263 4.364213
vt 0.688263 4.364213
vt 0.631535 4.364213
vt 0.631535 4.364213
vt 0.134338 -1.609967
vt 0.688264 0.869365
vt 0.688264 0.869365
vt 0.631535 0.869365
vt 0.631535 4.364213
vt 0.631535 0.869365
vt 0.631535 0.869365
vt 0.735397 -3.986478
vt 0.818730 0.118304
vt 0.818729 -3.344115
vt 0.818730 0.118304
vt 0.631535 4.364213
vt 0.631535 0.869365
vt 0.631535 0.869365
vt 0.631535 4.364213
vt 0.631535 4.364213
vt 0.631535 0.869365
vt 0.391834 1.115968
vt 0.391834 4.358178
vt 0.391834 1.115968
vt 0.391834 4.358178
vn -0.0000 0.0000 -1.0000
vn 0.0000 1.0000 -0.0000
vn 0.2285 0.9651 -0.1278
vn 0.0000 -0.0422 -0.9991
vn -0.2165 0.1717 0.9611
vn 0.6228 0.2623 -0.7371
vn 0.2165 0.1717 0.9611
vn -0.6228 0.2623 -0.7371
vn 0.0000 1.0000 0.0001
vn 0.0000 0.0000 1.0000
vn 0.2649 0.7371 0.6217
vn -0.2649 0.7371 0.6217
vn -0.2285 0.9651 -0.1278
vn -0.0000 -1.0000 -0.0000
vn -0.0001 1.0000 -0.0000
vn 0.6279 -0.0000 0.7783
vn -0.6279 -0.0000 0.7783
vn -0.2015 -0.0000 0.9795
vn 0.1905 -0.3252 0.9263
vn 0.1906 -0.3252 0.9262
vn 0.0000 -0.2737 -0.9618
vn -0.1906 -0.3252 0.9262
vn -0.1905 -0.3252 0.9263
vn 0.2015 0.0000 0.9795
vn -0.0000 1.0000 -0.0001
vn -0.5457 -0.5898 0.5953
vn -0.5457 -0.5899 0.5953
vn 0.0000 -0.0468 -0.9989
vn -0.0000 -0.0011 1.0000
vn 0.5457 -0.5898 0.5953
vn 0.5457 -0.5899 0.5953
usemtl Material.001
s 1
f 73/139/41 74/140/41 75/141/41 76/142/41
f 77/143/42 78/144/42 79/145/42 80/146/42
f 81/147/43 82/148/43 83/149/43 84/150/43
f 85/151/44 86/152/44 77/143/44 87/153/44
f 73/139/45 88/154/45 89/155/45 78/144/45
f 74/140/46 85/151/46 87/153/46 90/156/46
f 88/154/47 74/140/47 90/156/47 89/155/47
f 86/152/48 73/139/48 78/144/48 77/143/48
f 89/155/49 90/156/42 81/147/42 91/157/49
f 92/158/50 93/159/50 94/160/50 95/161/50
f 91/157/51 81/147/51 84/150/51 96/162/51
f 90/156/42 87/153/42 82/148/42 81/147/42
f 78/144/42 89/155/49 91/157/49 79/145/42
f 87/153/42 77/143/42 80/146/42 82/148/42
f 79/145/52 91/157/52 96/162/52 84/150/52
f 80/146/53 79/145/53 84/150/53 83/149/53
f 82/148/41 80/146/41 83/149/41
f 97/163/54 93/159/54 85/151/54 74/140/54
f 93/159/54 92/158/54 86/152/54 85/151/54
f 92/158/54 98/164/54 73/139/54 86/152/54
f 98/164/54 97/163/54 74/140/54 73/139/54
f 99/165/42 95/161/42 100/166/55 101/167/41
f 98/164/56 92/158/56 95/161/56 99/165/56
f 93/159/57 97/163/57 102/168/57 94/160/57
f 97/163/41 98/164/41 99/165/41 102/168/41
f 88/154/58 73/139/58 76/142/58 103/169/58
f 104/170/54 105/171/54 106/172/54
f 105/171/59 104/170/60 75/141/59 103/169/59
f 104/170/61 106/172/61 76/142/61 75/141/61
f 106/172/62 105/171/63 103/169/63 76/142/63
f 74/140/64 88/154/64 103/169/64 75/141/64
f 101/167/41 100/166/55 107/173/42 108/174/42
f 94/160/42 102/168/42 109/175/65 110/176/50
f 102/168/42 99/165/42 101/167/41 109/175/65
f 95/161/42 94/160/42 110/176/50 100/166/55
f 111/177/66 112/178/66 113/179/66 114/180/67
f 110/176/50 109/175/65 112/178/42 111/177/42
f 109/175/65 101/167/41 108/174/42 112/178/42
f 100/166/55 110/176/50 111/177/42 107/173/42
f 114/180/54 113/179/54 115/181/54 116/182/54
f 112/178/68 108/174/68 115/181/68 113/179/68
f 107/173/69 111/177/69 114/180/69 116/182/69
f 108/174/70 107/173/70 116/182/71 115/181/70
o SailBack
v 0.000000 4.297014 -0.047486
v 0.000000 4.297014 -0.047486
v 0.000000 0.297014 -0.047487
v 0.000000 0.297014 2.315786
v 0.000000 0.297014 -0.047487
v 0.000000 4.297014 -0.047486
v 0.000000 4.297014 -0.047486
v 0.000000 0.297014 -0.047487
v 0.000000 0.297014 2.315786
v 0.000000 4.297014 -0.047486
v 0.000000 0.297014 2.315786
v 0.000000 4.297014 -0.047486
v 0.000000 4.297014 -0.047486
v 0.000000 0.297014 2.315786
v 0.000000 0.297014 -0.047487
v 0.000000 4.297014 -0.047486
vt 0.000000 0.000000
vt 0.000000 1.000000
vt 1.000000 1.000000
vt 1.000000 0.000000
vt 1.000000 1.000000
vt 0.000000 1.000000
vt 0.000000 1.000000
vt 1.000000 1.000000
vt 1.000000 0.000000
vt 0.000000 0.000000
vt 1.000000 0.000000
vt 0.000000 0.000000
vt 0.000000 0.000000
vt 1.000000 0.000000
vt 1.000000 1.000000
vt 0.000000 1.000000
vn 0.4472 0.0000 -0.8944
vn 1.0000 0.0000 -0.0000
vn 1.0000 -0.0000 -0.0001
vn 0.9929 0.0420 -0.1112
vn 0.0000 0.0000 1.0000
vn 0.0000 0.0000 -1.0000
vn 0.9995 -0.0000 -0.0316
vn 0.9963 -0.0766 0.0380
vn 1.0000 0.0000 0.0067
vn 0.4472 0.0000 0.8944
usemtl Sail.001
s 1
f 117/183/72 118/184/73 119/185/74 120/186/75
f 121/187/74 122/188/76 123/189/73 124/190/77
f 119/185/74 118/184/73 122/188/76 121/187/74
f 117/183/72 120/186/75 125/191/78 126/192/76
f 120/186/75 119/185/74 121/187/74 125/191/78
f 118/184/73 117/183/72 126/192/76 122/188/76
f 126/192/76 125/191/78 127/193/78 128/194/76
f 125/191/78 121/187/74 124/190/77 127/193/78
f 122/188/76 126/192/76 128/194/76 123/189/73
f 129/195/79 130/196/80 131/197/73 132/198/81
f 127/193/78 130/196/80 129/195/79 128/194/76
f 124/190/77 131/197/73 130/196/80 127/193/78
f 123/189/73 132/198/81 131/197/73 124/190/77
f 128/194/76 129/195/79 132/198/81 123/189/73
o Mast
v 0.000000 -0.177764 -0.045413
v 0.000000 4.297014 -0.045411
v -0.008900 4.297014 -0.046288
v -0.008900 -0.177764 -0.046290
v -0.017459 4.297014 -0.048884
v -0.017459 -0.177764 -0.048886
v -0.025346 4.297014 -0.053100
v -0.025346 -0.177764 -0.053102
v -0.032259 4.297014 -0.058774
v -0.032259 -0.177764 -0.058776
v -0.037933 4.297014 -0.065687
v -0.037933 -0.177764 -0.065689
v -0.042149 4.297014 -0.073574
v -0.042149 -0.177764 -0.073576
v -0.044745 4.297014 -0.082133
v -0.044745 -0.177764 -0.082135
v -0.045622 4.297014 -0.091033
v -0.045622 -0.177764 -0.091035
v -0.044745 4.297014 -0.099933
v -0.044745 -0.177764 -0.099935
v -0.042149 4.297014 -0.108492
v -0.042149 -0.177764 -0.108494
v -0.037933 4.297014 -0.116379
v -0.037933 -0.177764 -0.116381
v -0.032259 4.297014 -0.123292
v -0.032259 -0.177764 -0.123294
v -0.025346 4.297014 -0.128966
v -0.025346 -0.177764 -0.128968
v -0.017459 4.297014 -0.133182
v -0.017459 -0.177764 -0.133184
v -0.008900 4.297014 -0.135778
v -0.008900 -0.177764 -0.135780
v 0.000000 4.297014 -0.136655
v 0.000000 -0.177764 -0.136657
v 0.008900 4.297014 -0.135778
v 0.008900 -0.177764 -0.135780
v 0.017459 4.297014 -0.133182
v 0.017459 -0.177764 -0.133184
v 0.025346 4.297014 -0.128966
v 0.025346 -0.177764 -0.128968
v 0.032259 4.297014 -0.123292
v 0.032259 -0.177764 -0.123294
v 0.037933 4.297014 -0.116379
v 0.037933 -0.177764 -0.116381
v 0.042149 4.297014 -0.108492
v 0.042149 -0.177764 -0.108494
v 0.044745 4.297014 -0.099933
v 0.044745 -0.177764 -0.099935
v 0.045622 4.297014 -0.091033
v 0.045622 -0.177764 -0.091035
v 0.044745 4.297014 -0.082133
v 0.044745 -0.177764 -0.082135
v 0.042149 4.297014 -0.073574
v 0.042149 -0.177764 -0.073576
v 0.037933 4.297014 -0.065687
v 0.037933 -0.177764 -0.065689
v 0.032259 4.297014 -0.058774
v 0.032259 -0.177764 -0.058776
v 0.025346 4.297014 -0.053100
v 0.025346 -0.177764 -0.053102
v 0.017459 4.297014 -0.048884
v 0.017459 -0.177764 -0.048886
v 0.008900 4.297014 -0.046288
v 0.008900 -0.177764 -0.046290
vt 1.000000 0.500000
vt 1.000000 1.000000
vt 0.968750 1.000000
vt 0.968750 0.500000
vt 0.937500 1.000000
vt 0.937500 0.500000
vt 0.906250 1.000000
vt 0.906250 0.500000
vt 0.875000 1.000000
vt 0.875000 0.500000
vt 0.843750 1.000000
vt 0.843750 0.500000
vt 0.812500 1.000000
vt 0.812500 0.500000
vt 0.781250 1.000000
vt 0.781250 0.500000
vt 0.750000 1.000000
vt 0.750000 0.500000
vt 0.718750 1.000000
vt 0.718750 0.500000
vt 0.687500 1.000000
vt 0.687500 0.500000
vt 0.656250 1.000000
vt 0.656250 0.500000
vt 0.625000 1.000000
vt 0.625000 0.500000
vt 0.593750 1.000000
vt 0.593750 0.500000
vt 0.562500 1.000000
vt 0.562500 0.500000
vt 0.531250 1.000000
vt 0.531250 0.500000
vt 0.500000 1.000000
vt 0.500000 0.500000
vt 0.468750 1.000000
vt 0.468750 0.500000
vt 0.437500 1.000000
vt 0.437500 0.500000
vt 0.406250 1.000000
vt 0.406250 0.500000
vt 0.375000 1.000000
vt 0.375000 0.500000
vt 0.343750 1.000000
vt 0.343750 0.500000
vt 0.312500 1.000000
vt 0.312500 0.500000
vt 0.281250 1.000000
vt 0.281250 0.500000
vt 0.250000 1.000000
vt 0.250000 0.500000
vt 0.218750 1.000000
vt 0.218750 0.500000
vt 0.187500 1.000000
vt 0.187500 0.500000
vt 0.156250 1.000000
vt 0.156250 0.500000
vt 0.125000 1.000000
vt 0.125000 0.500000
vt 0.093750 1.000000
vt 0.093750 0.500000
vt 0.062500 1.000000
vt 0.062500 0.500000
vt 0.296822 0.485388
vt 0.250000 0.490000
vt 0.203178 0.485388
vt 0.158156 0.471731
vt 0.116663 0.449553
vt 0.080294 0.419706
vt 0.050447 0.383337
vt 0.028269 0.341844
vt 0.014612 0.296822
vt 0.010000 0.250000
vt 0.014612 0.203178
vt 0.028269 0.158156
vt 0.050447 0.116663
vt 0.080294 0.080294
vt 0.116663 0.050447
vt 0.158156 0.028269
vt 0.203178 0.014612
vt 0.250000 0.010000
vt 0.296822 0.014612
vt 0.341844 0.028269
vt 0.383337 0.050447
vt 0.419706 0.080294
vt 0.449553 0.116663
vt 0.471731 0.158156
vt 0.485388 0.203178
vt 0.490000 0.250000
vt 0.485388 0.296822
vt 0.471731 0.341844
vt 0.449553 0.383337
vt 0.419706 0.419706
vt 0.383337 0.449553
vt 0.341844 0.471731
vt 0.031250 1.000000
vt 0.031250 0.500000
vt 0.000000 1.000000
vt 0.000000 0.500000
vt 0.750000 0.490000
vt 0.796822 0.485388
vt 0.841844 0.471731
vt 0.883337 0.449553
vt 0.919706 0.419706
vt 0.949553 0.383337
vt 0.971731 0.341844
vt 0.985388 0.296822
vt 0.990000 0.250000
vt 0.985388 0.203178
vt 0.971731 0.158156
vt 0.949553 0.116663
vt 0.919706 0.080294
vt 0.883337 0.050447
vt 0.841844 0.028269
vt 0.796822 0.014612
vt 0.750000 0.010000
vt 0.703178 0.014612
vt 0.658156 0.028269
vt 0.616663 0.050447
vt 0.580294 0.080294
vt 0.550447 0.116663
vt 0.528269 0.158156
vt 0.514612 0.203178
vt 0.510000 0.250000
vt 0.514612 0.296822
vt 0.528269 0.341844
vt 0.550447 0.383337
vt 0.580294 0.419706
vt 0.616663 0.449553
vt 0.658156 0.471731
vt 0.703178 0.485388
vn -0.0985 -0.0000 0.9951
vn -0.2891 -0.0000 0.9573
vn -0.4714 -0.0000 0.8819
vn -0.6334 -0.0000 0.7738
vn -0.7737 -0.0000 0.6335
vn -0.8817 -0.0000 0.4717
vn -0.9573 -0.0000 0.2892
vn -0.9951 -0.0000 0.0985
vn -0.9951 0.0000 -0.0984
vn -0.9573 0.0000 -0.2891
vn -0.8819 0.0000 -0.4714
vn -0.7737 0.0000 -0.6335
vn -0.6335 0.0000 -0.7737
vn -0.4714 0.0000 -0.8819
vn -0.2891 0.0000 -0.9573
vn -0.0985 0.0000 -0.9951
vn 0.0985 0.0000 -0.9951
vn 0.2891 0.0000 -0.9573
vn 0.4714 0.0000 -0.8819
vn 0.6335 0.0000 -0.7737
vn 0.7737 0.0000 -0.6335
vn 0.8819 0.0000 -0.4714
vn 0.9573 0.0000 -0.2891
vn 0.9951 0.0000 -0.0984
vn 0.9951 -0.0000 0.0985
vn 0.9573 -0.0000 0.2892
vn 0.8817 -0.0000 0.4717
vn 0.7737 -0.0000 0.6335
vn 0.6334 -0.0000 0.7738
vn 0.4714 -0.0000 0.8819
vn 0.0000 1.0000 0.0000
vn 0.2891 -0.0000 0.9573
vn 0.0985 -0.0000 0.9951
vn 0.0000 -1.0000 -0.0000
usemtl Mast
s 1
f 133/199/82 134/200/82 135/201/82 136/202/82
f 136/202/83 135/201/83 137/203/83 138/204/83
f 138/204/84 137/203/84 139/205/84 140/206/84
f 140/206/85 139/205/85 141/207/85 142/208/85
f 142/208/86 141/207/86 143/209/86 144/210/86
f 144/210/87 143/209/87 145/211/87 146/212/87
f 146/212/88 145/211/88 147/213/88 148/214/88
f 148/214/89 147/213/89 149/215/89 150/216/89
f 150/216/90 149/215/90 151/217/90 152/218/90
f 152/218/91 151/217/91 153/219/91 154/220/91
f 154/220/92 153/219/92 155/221/92 156/222/92
f 156/222/93 155/221/93 157/223/93 158/224/93
f 158/224/94 157/223/94 159/225/94 160/226/94
f 160/226/95 159/225/95 161/227/95 162/228/95
f 162/228/96 161/227/96 163/229/96 164/230/96
f 164/230/97 163/229/97 165/231/97 166/232/97
f 166/232/98 165/231/98 167/233/98 168/234/98
f 168/234/99 167/233/99 169/235/99 170/236/99
f 170/236/100 169/235/100 171/237/100 172/238/100
f 172/238/101 171/237/101 173/239/101 174/240/101
f 174/240/102 173/239/102 175/241/102 176/242/102
f 176/242/103 175/241/103 177/243/103 178/244/103
f 178/244/104 177/243/104 179/245/104 180/246/104
f 180/246/105 179/245/105 181/247/105 182/248/105
f 182/248/106 181/247/106 183/249/106 184/250/106
f 184/250/107 183/249/107 185/251/107 186/252/107
f 186/252/108 185/251/108 187/253/108 188/254/108
f 188/254/109 187/253/109 189/255/109 190/256/109
f 190/256/110 189/255/110 191/257/110 192/258/110
f 192/258/111 191/257/111 193/259/111 194/260/111
f 135/261/112 134/262/112 195/263/112 193/264/112 191/265/112 189/266/112 187/267/112 185/268/112 183/269/112 181/270/112 179/271/112 177/272/112 175/273/112 173/274/112 171/275/112 169/276/112 167/277/112 165/278/112 163/279/112 161/280/112 159/281/112 157/282/112 155/283/112 153/284/112 151/285/112 149/286/112 147/287/112 145/288/112 143/289/112 141/290/112 139/291/112 137/292/112
f 194/260/113 193/259/113 195/293/113 196/294/113
f 196/294/114 195/293/114 134/295/114 133/296/114
f 133/297/115 136/298/115 138/299/115 140/300/115 142/301/115 144/302/115 146/303/115 148/304/115 150/305/115 152/306/115 154/307/115 156/308/115 158/309/115 160/310/115 162/311/115 164/312/115 166/313/115 168/314/115 170/315/115 172/316/115 174/317/115 176/318/115 178/319/115 180/320/115 182/321/115 184/322/115 186/323/115 188/324/115 190/325/115 192/326/115 194/327/115 196/328/115
o SailFront
v 0.000000 2.297014 -0.091035
v 0.000000 3.015157 -0.091034
v 0.000000 0.297014 -1.628082
v 0.000000 0.297014 -0.091035
v 0.000000 0.297014 -0.091035
v 0.000000 0.297014 -1.628082
v 0.000000 0.297014 -1.628082
v 0.000000 0.297014 -0.091035
v 0.000000 3.015157 -0.091034
v 0.000000 2.297014 -0.091035
v 0.000000 2.297014 -0.091035
v 0.000000 3.015157 -0.091034
v 0.000000 2.297014 -0.091035
v 0.000000 0.297014 -0.091035
v 0.000000 0.297014 -1.628082
v 0.000000 3.015157 -0.091034
vt 0.000000 0.000000
vt 0.000000 1.000000
vt 1.000000 1.000000
vt 1.000000 0.000000
vt 1.000000 0.000000
vt 1.000000 1.000000
vt 1.000000 1.000000
vt 1.000000 0.000000
vt 0.000000 1.000000
vt 0.000000 0.000000
vt 0.000000 0.000000
vt 0.000000 1.000000
vt 0.000000 0.000000
vt 1.000000 0.000000
vt 1.000000 1.000000
vt 0.000000 1.000000
vn -1.0000 0.0000 0.0000
vn 0.0000 0.0000 0.0000
vn 0.0000 0.0000 1.0000
vn 1.0000 0.0000 -0.0057
vn 1.0000 0.0000 -0.0043
vn 1.0000 0.0000 0.0000
vn 0.0000 0.0000 -1.0000
vn 0.9999 0.0046 0.0129
vn 0.9999 0.0000 -0.0107
usemtl Sail
s 1
f 197/329/116 198/330/116 199/331/116 200/332/116
f 201/333/117 202/334/118 203/335/117 204/336/118
f 199/331/117 198/330/119 205/337/120 202/334/118
f 197/329/121 200/332/117 201/333/117 206/338/118
f 200/332/117 199/331/117 202/334/118 201/333/117
f 198/330/119 197/329/121 206/338/118 205/337/120
f 205/337/120 206/338/118 207/339/121 208/340/122
f 202/334/118 205/337/120 208/340/122 203/335/117
f 206/338/118 201/333/117 204/336/118 207/339/121
f 209/341/121 210/342/121 211/343/123 212/344/124
f 204/336/118 210/342/121 209/341/121 207/339/121
f 203/335/117 211/343/123 210/342/121 204/336/118
f 208/340/122 212/344/124 211/343/123 203/335/117
f 207/339/121 209/341/121 212/344/124 208/340/122
